<svg height="512" viewBox="0 0 64 64" width="512" xmlns="http://www.w3.org/2000/svg"><path d="m12 59a2.006 2.006 0 0 0 2 2h36a2.006 2.006 0 0 0 2-2v-54a2.006 2.006 0 0 0 -2-2h-26v12h-12zm22-8h12v4h-12z" fill="#9bc9ff"/><g fill="#57a4ff"><path d="m50 2h-26v.009a.991.991 0 0 0 -.707.284l-12 12a1 1 0 0 0 -.284.707h-.009v44a3 3 0 0 0 3 3h36a3 3 0 0 0 3-3v-54a3 3 0 0 0 -3-3zm-27 3.414v8.586h-8.586zm28 53.586a1 1 0 0 1 -1 1h-36a1 1 0 0 1 -1-1v-43h11a1 1 0 0 0 1-1v-11h25a1 1 0 0 1 1 1z"/><path d="m43 11a2 2 0 0 1 2 2h2a4 4 0 0 0 -3-3.858v-1.142h-2v1.142a3.992 3.992 0 0 0 1 7.858 2 2 0 1 1 -2 2h-2a4 4 0 0 0 3 3.858v1.142h2v-1.142a3.992 3.992 0 0 0 -1-7.858 2 2 0 0 1 0-4z"/><path d="m29 8h8v2h-8z"/><path d="m29 14h8v2h-8z"/><path d="m17 20h20v2h-20z"/><path d="m17 26h30v2h-30z"/><path d="m17 32h30v2h-30z"/><path d="m17 38h30v2h-30z"/><path d="m17 44h30v2h-30z"/><path d="m46 50h-12a1 1 0 0 0 -1 1v4a1 1 0 0 0 1 1h12a1 1 0 0 0 1-1v-4a1 1 0 0 0 -1-1zm-1 4h-10v-2h10z"/></g></svg>